<svg xmlns="http://www.w3.org/2000/svg" viewBox="0 0 342 739.5"><defs><style>.cls-1{fill:#fff;}.cls-2,.cls-3{fill:#f35d6d;}.cls-3{stroke:#f35d6d;stroke-miterlimit:10;}</style></defs><g id="Layer_2" data-name="Layer 2"><g id="Layer_2-2" data-name="Layer 2"><rect class="cls-1" x="5.5" y="92.69" width="331" height="641.81"/><path class="cls-2" d="M331.5,97.69V729.5H10.5V97.69h321m10-10H.5V739.5h341V87.69Z"/><rect class="cls-1" x="51.47" y="144.15" width="239.06" height="161.53"/><path class="cls-2" d="M285.53,149.15V300.68H56.47V149.15H285.53m10-10H46.47V310.68H295.53V139.15Z"/><rect class="cls-1" x="51.47" y="518.77" width="239.06" height="161.53"/><path class="cls-2" d="M285.53,523.77V675.3H56.47V523.77H285.53m10-10H46.47V685.3H295.53V513.77Z"/><rect class="cls-2" x="253.87" y="368.51" width="44.89" height="88.8"/><path class="cls-2" d="M293.76,373.51v78.8H258.87v-78.8h34.89m10-10H248.87v98.8h54.89v-98.8Z"/><path class="cls-1" d="M276.32,413.12A22.17,22.17,0,1,1,298.49,391,22.19,22.19,0,0,1,276.32,413.12Z"/><path class="cls-2" d="M276.32,373.78A17.17,17.17,0,1,1,259.15,391a17.19,17.19,0,0,1,17.17-17.17m0-10A27.17,27.17,0,1,0,303.49,391a27.17,27.17,0,0,0-27.17-27.17Z"/><rect class="cls-3" x="0.5" y="0.5" width="341" height="88"/><path class="cls-1" d="M81.88,64.32,73.2,34.5h8L85.67,54h.24L91.05,34.5h6.5l5.14,19.58h.25l4.51-19.58h8l-8.66,29.82H99.79L94.42,46.24h-.24L88.81,64.32Z"/><path class="cls-1" d="M118.38,64.32V34.5H130.7a13,13,0,0,1,5.79,1.2,8.77,8.77,0,0,1,3.76,3.44,10.21,10.21,0,0,1,1.33,5.29,9.73,9.73,0,0,1-1.36,5.26A8.5,8.5,0,0,1,136.38,53a14.09,14.09,0,0,1-5.9,1.13h-7.79V48.43h6.45a7.68,7.68,0,0,0,2.73-.42,3.42,3.42,0,0,0,1.67-1.32,4.07,4.07,0,0,0,.57-2.26,4.23,4.23,0,0,0-.57-2.29,3.43,3.43,0,0,0-1.68-1.37,7,7,0,0,0-2.72-.46h-3.55v24Zm16.79-13.63,7.42,13.63h-7.86l-7.28-13.63Z"/><path class="cls-1" d="M152.73,34.5V64.32h-7.21V34.5Z"/><path class="cls-1" d="M156.27,40.35V34.5h25.2v5.85h-9v24h-7.11v-24Z"/><path class="cls-1" d="M184,40.35V34.5h25.2v5.85h-9v24h-7.1v-24Z"/><path class="cls-1" d="M212.77,64.32V34.5h20.79v5.85H220v6.12H232.5v5.87H220v6.13h13.58v5.85Z"/><path class="cls-1" d="M263.45,34.5V64.32h-6.11L245.47,47.11h-.19V64.32h-7.2V34.5h6.2L256,51.68h.25V34.5Z"/></g></g></svg>