<?xml version="1.0" encoding="utf-8"?>
<!-- Generator: Adobe Illustrator 24.2.3, SVG Export Plug-In . SVG Version: 6.00 Build 0)  -->
<svg version="1.1" id="Layer_1" xmlns="http://www.w3.org/2000/svg" xmlns:xlink="http://www.w3.org/1999/xlink" x="0px" y="0px"
	 viewBox="0 0 341 714.9" style="enable-background:new 0 0 341 714.9;" xml:space="preserve">
<style type="text/css">
	.st0{fill:none;stroke:#000000;stroke-width:5;stroke-miterlimit:10;}
</style>
<g id="Layer_2-2">
	<g id="XMLID_1_">
		<g>
			<path d="M228.2,525.4c19.2,0.6,34.8,69.2,34.8,154c0,9.6-11,18.2-28.5,24.2c0-81.5-10.8-147.6-24-149.2
				C216.8,549,222.7,539.1,228.2,525.4z"/>
			<path d="M135.2,549.7l-1.2,0.7c-9.7,0-17.5,69.4-17.5,155.2C102,701.5,93,695.8,93,689.4c0-97.3,9.4-176,21-176l0.5-0.2
				C120.8,529.4,127.8,541.8,135.2,549.7z"/>
			<path d="M338.5,500.9C338.5,501,338.5,501,338.5,500.9c0,1.9-0.3,3.8-0.8,5.5c-23.2-0.3-43.6-34.2-55.5-85.5
				c-7-30.2-11.1-66.5-11.1-105.5l-0.1-0.2c6.6-3.1,11.1-9.2,11.1-16.3l0.4-0.5C314.6,322.1,338.4,403.7,338.5,500.9z"/>
			<path d="M337.7,506.4c-3.3,10.9-16.2,19-31.7,19c-23.2,0-43-27-50.6-65c14.7-0.3,26.6-17.9,26.6-39.5l0.1,0
				C294.1,472.2,314.5,506.1,337.7,506.4z"/>
			<path d="M274,69.9c15.9,7.6,26.9,17.9,31.6,30.8c4.2,13.3,6.5,27.6,6.5,42.3c0,24.6-6.3,47.7-17.4,67.8
				c-21.1,6.1-41.8,10.9-61.9,14.3c-15.9-5.3-36.7-8.6-59.6-8.7c-26.3,0.1-49.9,4.5-66.9,11.4c-37.2-6.9-62.8-22.2-69.5-45l0,0
				c-3.7-12.6-5.7-26-5.7-39.8c0-24.5,6.2-47.5,17.2-67.5c9-2.6,17.9-5,26.7-7.1c6.2-1.5,12.3-2.8,18.4-4.1
				c65.2-13.3,124-13.2,163.6-1C263.2,65.3,268.8,67.5,274,69.9z M226.1,103.5c0-13.8-24.1-25-54-25c-43.7,0-79,11.2-79,25
				c0,14.4,27.3,26,61,26C193.9,129.5,226.1,117.9,226.1,103.5z"/>
			<path d="M282.4,298.4l-0.4,0.5c0,7.1-4.5,13.2-11.1,16.3c-2.8,1.3-6,2.1-9.4,2.2c0.4-8.5,0.7-17.2,0.9-26l0.6,0
				C269.7,291.4,276.2,293.8,282.4,298.4z"/>
			<path d="M228.2,525.4c-5.5,13.6-11.5,23.5-17.7,29c-3.7,3.3-7.6,5-11.5,5h-45c-6.5,0-12.8-3.4-18.8-9.7
				c-7.4-7.9-14.4-20.3-20.7-36.5C100.7,478,89.9,425,84,361.9c-1.7-18.1-3-37-3.8-56.6c-0.2-4.7-0.4-9.4-0.5-14.1
				C79.3,279,79,266.6,79,253.9h0.5c0-0.3,0-0.6,0-0.9c1.3,43.4,41.9,78.2,92.1,78.4c12.4-0.1,24.8-2.6,36.2-7.4v-0.1
				c29.4-11.7,50.9-37.5,55.2-68.3c0,12.1-0.2,24.1-0.5,35.8c-0.2,8.8-0.5,17.5-0.9,26c-1.8,39.3-5.1,75.9-9.7,108
				C245.8,467.4,237.7,502,228.2,525.4z M133,429.4h75c0-35.4-18.8-64-42-64C147.8,365.4,133,394,133,429.4z"/>
			<path d="M268.6,41.4c-6.5,0.3-11.6,10-11.6,21.9c-39.6-12.2-98.4-12.3-163.6,1l-0.4-2c0-11.6-8-21-18-21l-0.2-0.2
				c25.2-24,59.3-38.7,96.8-38.7C209.2,2.5,243.4,17.3,268.6,41.4z"/>
			<path d="M173.2,216.4c22.9,0.1,43.7,3.4,59.6,8.7c-48.3,8.3-92.3,9-126.5,2.7C123.3,220.9,147,216.6,173.2,216.4z"/>
			<path d="M54,342.1c0,9.9,0.1,19.6,0.1,29.2H54c-0.1-15.2-9.4-27.6-21.2-28.7c12.7-32.1,28.5-51.2,45.8-51.2l1.1,0
				c0.2,4.7,0.3,9.4,0.5,14.1l-1.2,0.1C65.3,305.4,54.1,321.8,54,342.1z"/>
			<path d="M54,371.2h0.1C55,477.9,60,559.4,66,559.4c-32.7,0-59.5-7.2-63.1-16.6C3,460.9,14.7,388.4,32.8,342.5
				C44.6,343.7,53.9,356.1,54,371.2z"/>
		</g>
		<g>
			<path class="st0" d="M79.5,252.9c0.1-1.1,0.3-2.2,0.6-3.3c2.4-8.5,11.9-16.1,26.2-21.9c17-6.9,40.7-11.2,66.9-11.4
				c0.4,0,0.8,0,1.3,0"/>
			<path class="st0" d="M79.5,253.9c0-0.3,0-0.6,0-0.9"/>
			<path class="st0" d="M263.5,250.9c0-0.5,0-1-0.1-1.5c-1.1-9.6-12.7-18.3-30.6-24.3c-15.9-5.3-36.7-8.6-59.6-8.7
				c-0.4,0-0.8,0-1.2,0"/>
			<path class="st0" d="M74.8,41.2c25.2-24,59.3-38.7,96.8-38.7c37.6,0,71.8,14.8,97.1,38.9c4,3.8,7.8,7.9,11.3,12.2
				c11.4,13.8,20.1,29.7,25.6,47.1c4.2,13.3,6.5,27.6,6.5,42.3c0,24.6-6.3,47.7-17.4,67.8c-8.1,14.7-18.7,27.7-31.3,38.6
				c-24.6,21.3-56.7,34.1-91.8,34.1c-34.9,0-66.9-12.8-91.5-33.9c-20.3-17.4-35.5-40.5-43.3-66.8c-3.7-12.6-5.7-26-5.7-39.8
				c0-24.5,6.2-47.5,17.2-67.5c4.5-8.2,9.8-16,15.9-23.1C67.5,48.5,71.1,44.8,74.8,41.2z"/>
			<path class="st0" d="M36.8,182.8c6.7,22.8,32.2,38.1,69.5,45c34.2,6.4,78.2,5.7,126.5-2.7c20-3.4,40.8-8.2,61.9-14.3
				c0.2-0.1,0.4-0.1,0.6-0.2"/>
			<path class="st0" d="M306.5,103.4c-0.3-0.9-0.6-1.8-0.9-2.7c-4.7-12.9-15.7-23.2-31.6-30.8c-5.2-2.5-10.9-4.7-17-6.6
				c-39.6-12.2-98.4-12.3-163.6,1C87.3,65.6,81.2,67,75,68.5c-8.8,2.1-17.7,4.5-26.7,7.1c-0.3,0.1-0.6,0.2-0.8,0.2"/>
			<path class="st0" d="M93.1,103.5c0-13.8,35.3-25,79-25"/>
			<path class="st0" d="M226.1,103.5c0-13.8-24.1-25-54-25"/>
			<path class="st0" d="M226.1,103.5c0,14.4-32.2,26-72,26"/>
			<path class="st0" d="M93.1,103.5c0,14.4,27.3,26,61,26"/>
			<path class="st0" d="M207.8,324c-11.5,4.9-23.8,7.4-36.2,7.4c-0.2,0-0.4,0-0.6,0"/>
			<path class="st0" d="M263.5,250.9c-0.1,1.6-0.3,3.1-0.5,4.7c-4.3,30.9-25.8,56.6-55.2,68.3"/>
			<path class="st0" d="M79.5,250.9c0,0.7,0,1.4,0,2c0,0,0,0,0,0.1c1.3,43.4,41.9,78.2,92.1,78.4c0.1,0,0.3,0,0.4,0"/>
			<path class="st0" d="M79,250.4c0,1.2,0,2.3,0,3.5c0,12.6,0.2,25.1,0.6,37.3c0.2,4.7,0.3,9.4,0.5,14.1c0.8,19.6,2.1,38.5,3.8,56.6
				c5.9,63.1,16.7,116.1,30.5,151.3c6.3,16.2,13.3,28.6,20.7,36.5c6,6.3,12.3,9.7,18.8,9.7"/>
			<path class="st0" d="M263,250.4c0,1.7,0,3.5,0,5.2c0,12.1-0.2,24.1-0.5,35.8c-0.2,8.8-0.5,17.5-0.9,26
				c-1.8,39.3-5.1,75.9-9.7,108c-6,42-14.1,76.6-23.5,100c-5.5,13.6-11.5,23.5-17.7,29c-3.7,3.3-7.6,5-11.5,5"/>
			<path class="st0" d="M338.5,500.9c-0.1-97.2-23.9-178.8-56.1-202.5c-6.2-4.6-12.7-7-19.4-7"/>
			<path class="st0" d="M338.5,501.4c0-0.1,0-0.3,0-0.4"/>
			<path class="st0" d="M338.5,500.9C338.5,501,338.5,501,338.5,500.9c0,1.9-0.3,3.8-0.8,5.5c-3.3,10.9-16.2,19-31.7,19"/>
			<path class="st0" d="M252,425.4c0,12.3,1.2,24.1,3.4,35c7.7,38,27.4,65,50.6,65"/>
			<path class="st0" d="M2.9,546.5c0-1.2,0-2.5,0-3.7C3,460.9,14.7,388.4,32.8,342.5c12.7-32.1,28.5-51.2,45.8-51.2"/>
			<path class="st0" d="M2.5,540.7c0,0.7,0.1,1.4,0.4,2.1c3.6,9.3,30.4,16.6,63.1,16.6"/>
			<path class="st0" d="M84,361.9c0,109.2-8,197.5-18,197.5"/>
			<line class="st0" x1="154" y1="559.4" x2="199" y2="559.4"/>
			<path class="st0" d="M93,689.4c0,6.3,9,12,23.5,16.2c9.2,2.6,20.7,4.6,33.5,5.8c7.6,0.7,15.6,1,24,1"/>
			<path class="st0" d="M263,679.4c0,9.6-11,18.2-28.5,24.2c-10,3.4-22.1,6-35.5,7.5c-7.9,0.9-16.3,1.3-25,1.3"/>
			<path class="st0" d="M263,679.4c0-84.8-15.5-153.4-34.8-154c-0.1,0-0.2,0-0.2,0"/>
			<path class="st0" d="M93,689.4c0-97.3,9.4-176,21-176"/>
			<path class="st0" d="M133,429.4c0-35.4,14.8-64,33-64"/>
			<path class="st0" d="M208,429.4c0-35.4-18.8-64-42-64"/>
			<polyline class="st0" points="210.5,429.4 208,429.4 133,429.4 130.5,429.4 			"/>
			<path class="st0" d="M54,337.4c0,1.6,0,3.1,0,4.7c0,9.9,0.1,19.6,0.1,29.2C55,477.9,60,559.4,66,559.4"/>
			<path class="st0" d="M54,342.4c0-0.1,0-0.2,0-0.3c0.1-20.3,11.3-36.7,25-36.7"/>
			<path class="st0" d="M282,298.9c0,7.1-4.5,13.2-11.1,16.3c-2.8,1.3-6,2.1-9.4,2.2c-0.2,0-0.3,0-0.5,0"/>
			<path class="st0" d="M271,315.4c0,39,4.1,75.3,11.1,105.5c11.9,51.3,32.4,85.2,55.5,85.5c0.1,0,0.2,0,0.3,0"/>
			<path class="st0" d="M282,420.9c0,21.6-11.9,39.2-26.6,39.5c-0.1,0-0.3,0-0.4,0"/>
			<path class="st0" d="M282,429.4c0-2.2,0.5-4,1-4"/>
			<path class="st0" d="M54,371.4c0-0.1,0-0.1,0-0.2c-0.1-15.2-9.4-27.6-21.2-28.7c-0.6-0.1-1.2-0.1-1.8-0.1"/>
			<path class="st0" d="M75,68.4c0-8.7-4.8-15.8-10.8-16c-0.1,0-0.1,0-0.2,0"/>
			<path class="st0" d="M274,70.4c0-0.2,0-0.3,0-0.5c0.1-8.6,2.3-15.5,5-15.5"/>
			<path class="st0" d="M93,62.4c0-11.6-8-21-18-21"/>
			<path class="st0" d="M257,63.4C257,63.4,257,63.4,257,63.4c0-12,5.2-21.6,11.6-22c0.1,0,0.2,0,0.4,0"/>
			<path class="st0" d="M116.5,705.9c0-0.1,0-0.2,0-0.3c0-85.8,7.8-155.2,17.5-155.2"/>
			<path class="st0" d="M234.5,703.9c0-0.1,0-0.2,0-0.3c0-81.5-10.8-147.6-24-149.2c-0.2,0-0.3,0-0.5,0"/>
			<path class="st0" d="M150,711.4C150,711.4,150,711.4,150,711.4c0-43.7,8.9-79,20-79"/>
			<path class="st0" d="M199,711.4c0-0.1,0-0.2,0-0.3c-0.1-43.5-13-78.7-29-78.7"/>
		</g>
	</g>
</g>
</svg>
