<svg xmlns="http://www.w3.org/2000/svg" viewBox="0 0 341 714.92"><defs><style>.cls-1{fill:none;stroke:#000;stroke-miterlimit:10;stroke-width:5px;}</style></defs><g id="Layer_2" data-name="Layer 2"><g id="Layer_2-2" data-name="Layer 2"><path class="cls-1" d="M79.5,253.92c0-20.73,42.49-37.5,95-37.5"/><path class="cls-1" d="M263.5,250.92c0-19.07-40.92-34.5-91.5-34.5"/><circle class="cls-1" cx="171.59" cy="143.04" r="140.5"/><path class="cls-1" d="M36.84,182.82c15.31,52.54,130.92,65,258.49,27.8"/><path class="cls-1" d="M306.5,103.45c-15.31-52.53-131.14-64.9-259-27.66"/><path class="cls-1" d="M93.09,103.52c0-13.82,35.33-25,79-25"/><path class="cls-1" d="M226.09,103.52c0-13.82-24.15-25-54-25"/><path class="cls-1" d="M226.09,103.52c0,14.37-32.21,26-72,26"/><path class="cls-1" d="M93.09,103.52c0,14.37,27.28,26,61,26"/><path class="cls-1" d="M207.83,324A93.89,93.89,0,0,1,171,331.42"/><path class="cls-1" d="M263.5,250.92c-2.65,32.92-24.83,60.67-55.67,73"/><path class="cls-1" d="M79.5,250.92c0,44.5,41.37,80.5,92.5,80.5"/><path class="cls-1" d="M79,250.42c0,170.8,33.54,309,75,309"/><path class="cls-1" d="M263,250.42c0,170.8-28.62,309-64,309"/><path class="cls-1" d="M338.5,501.42c0-116.07-33.77-210-75.5-210"/><path class="cls-1" d="M338.5,500.92c0,13.54-14.54,24.5-32.5,24.5"/><path class="cls-1" d="M252,425.42c0,55.28,24.15,100,54,100"/><path class="cls-1" d="M2.91,546.54C2.46,405.6,36.31,291.44,78.59,291.3"/><path class="cls-1" d="M2.5,540.71c0,10.34,28.4,18.71,63.5,18.71"/><path class="cls-1" d="M84,361.92c0,109.17-8,197.5-18,197.5"/><path class="cls-1" d="M154,559.42h45"/><path class="cls-1" d="M93,689.42c0,12.71,36.23,23,81,23"/><path class="cls-1" d="M263,679.42c0,18.24-39.81,33-89,33"/><path class="cls-1" d="M263,679.42c0-85.12-15.65-154-35-154"/><path class="cls-1" d="M93,689.42c0-97.28,9.39-176,21-176"/><path class="cls-1" d="M133,429.42c0-35.37,14.76-64,33-64"/><path class="cls-1" d="M208,429.42c0-35.37-18.79-64-42-64"/><path class="cls-1" d="M210.5,429.42h-80"/><path class="cls-1" d="M54,337.42c0,122.71,5.37,222,12,222"/><path class="cls-1" d="M54,342.42c0-20.45,11.18-37,25-37"/><path class="cls-1" d="M282,298.92c0,10.23-9.39,18.5-21,18.5"/><path class="cls-1" d="M271,315.42c0,105.57,30,191,67,191"/><path class="cls-1" d="M282,420.92c0,21.83-12.08,39.5-27,39.5"/><path class="cls-1" d="M282,429.42c0-2.21.45-4,1-4"/><path class="cls-1" d="M54,371.42c0-16-10.29-29-23-29"/><path class="cls-1" d="M75,68.42c0-8.84-4.92-16-11-16"/><path class="cls-1" d="M274,70.42c0-8.84,2.24-16,5-16"/><path class="cls-1" d="M93,62.42c0-11.61-8-21-18-21"/><path class="cls-1" d="M257,63.42c0-12.16,5.37-22,12-22"/><path class="cls-1" d="M116.5,705.92c0-85.95,7.83-155.5,17.5-155.5"/><path class="cls-1" d="M234.5,703.92c0-82.63-11-149.5-24.5-149.5"/><path class="cls-1" d="M150,711.42c0-43.66,8.95-79,20-79"/><path class="cls-1" d="M199,711.42c0-43.66-13-79-29-79"/></g></g></svg>