<?xml version="1.0" encoding="utf-8"?>
<!-- Generator: Adobe Illustrator 24.2.3, SVG Export Plug-In . SVG Version: 6.00 Build 0)  -->
<svg version="1.1" xmlns="http://www.w3.org/2000/svg" xmlns:xlink="http://www.w3.org/1999/xlink" x="0px" y="0px"
	 viewBox="0 0 1920 1080" style="enable-background:new 0 0 1920 1080;" xml:space="preserve">
<style type="text/css">
	.st0{fill:#FFFFFF;}
	.st1{fill:#FFFFFF;stroke:#FFFFFF;stroke-width:11;stroke-miterlimit:10;}
	.st2{display:none;enable-background:new    ;}
	.st3{font-family:'HelveticaNeue-Bold';}
	.st4{font-size:14.8476px;}
	.st5{fill:none;}
	.st6{display:none;fill:#F2F2F2;stroke:#000000;stroke-width:11;stroke-miterlimit:10;}
	.st7{display:none;}
	.st8{display:inline;}
	.st9{fill:#010101;}
	.st10{enable-background:new    ;}
	.st11{font-size:12.3919px;}
	.st12{font-size:11.955px;}
</style>
<g id="Layer_1">
	<g id="Layer_5">
	</g>
	<g>
		<g>
			<path class="st0" d="M977.27,415.89h31.56l33.34,81.33h1.42l33.34-81.33h31.56v121.06h-24.83v-78.79h-1l-31.33,78.2h-16.9
				l-31.33-78.5h-1v79.09h-24.83V415.89z"/>
		</g>
	</g>
	<circle class="st1" cx="1348.39" cy="477.51" r="62.92"/>
	<g>
		<g>
			<path d="M1381.84,502.62c-32.28,0-58.42-26.33-58.42-58.79c0-10.69,3.05-20.58,8.01-29.21c-26.9,7.81-46.69,32.48-46.69,62.06
				c0,35.83,28.86,64.88,64.46,64.88c29.4,0,53.93-19.93,61.69-46.98C1402.29,499.55,1392.47,502.62,1381.84,502.62z"/>
		</g>
		<text transform="matrix(0.7139 0 0 1 1661.3262 548.0078)" class="st2 st3 st4">Created by P.J. Onori</text>
		<text transform="matrix(0.7139 0 0 1 1661.3262 562.8584)" class="st2 st3 st4">from the Noun Project</text>
	</g>
	<g id="Layer_2_copy">
		<g>
			<g>
				<path class="st0" d="M1538.37,418.5v121.6h-22.21l-52.9-76.53h-0.89v76.53h-25.71V418.5h22.56l52.49,76.48h1.07V418.5H1538.37z"
					/>
			</g>
		</g>
		<rect x="1053.26" y="902.62" class="st5" width="51.88" height="95.77"/>
	</g>
	<circle class="st6" cx="868.5" cy="392.25" r="120.75"/>
	<g class="st7">
		<g class="st8">
			<path class="st9" d="M693.74-33.62c8.6,0,15.57-31.52,15.57-70.39c0-12.8-0.81-24.64-2.13-34.97
				c7.17,9.35,12.44,38.88,12.44,74.3c0,42.89-7.69,77.68-17.18,77.68c-7.83,0-14.37-23.86-16.44-56.25
				C688.29-37.29,690.91-33.62,693.74-33.62z"/>
		</g>
		<text transform="matrix(0.9937 0 0 1 742.7124 555.6455)" class="st10 st3 st11">Created by P.J. Onori</text>
		<text transform="matrix(0.9937 0 0 1 742.7124 568.0391)" class="st10 st3 st11">from the Noun Project</text>
	</g>
	<g class="st7">
		<g class="st8">
			<path class="st9" d="M697.43-39.36c8.3,0,15.02-30.41,15.02-67.9c0-12.35-0.78-23.77-2.06-33.74
				c6.92,9.02,12.01,37.51,12.01,71.68c0,41.38-7.42,74.94-16.57,74.94c-7.56,0-13.87-23.02-15.86-54.27
				C692.17-42.91,694.69-39.36,697.43-39.36z"/>
		</g>
		<text transform="matrix(0.9937 0 0 1 722.396 542.293)" class="st10 st3 st12">Created by P.J. Onori</text>
		<text transform="matrix(0.9937 0 0 1 722.396 554.249)" class="st10 st3 st12">from the Noun Project</text>
	</g>
	<circle class="st1" cx="1198.5" cy="477.37" r="62.92"/>
	<g>
		<g>
			<path d="M1232.23,502.47c-32.28,0-58.42-26.33-58.42-58.79c0-10.69,3.05-20.58,8.01-29.21c-26.9,7.81-46.69,32.48-46.69,62.06
				c0,35.83,28.86,64.88,64.46,64.88c29.4,0,53.93-19.93,61.69-46.98C1252.67,499.4,1242.85,502.47,1232.23,502.47z"/>
		</g>
		<text transform="matrix(0.7139 0 0 1 1409.9004 547.6626)" class="st2 st3 st4">Created by P.J. Onori</text>
		<text transform="matrix(0.7139 0 0 1 218389.3125 -138577.7812)" class="st2"><tspan x="0" y="0" class="st8 st3 st4">from</tspan><tspan x="33.25" y="0" class="st8 st3 st4"> </tspan><tspan x="37.36" y="0" class="st8 st3 st4">th</tspan><tspan x="51.39" y="0" class="st8 st3 st4">e</tspan><tspan x="59.93" y="0" class="st8 st3 st4"> </tspan><tspan x="64.04" y="0" class="st8 st3 st4">N</tspan><tspan x="75.05" y="0" class="st8 st3 st4">o</tspan><tspan x="84.14" y="0" class="st8 st3 st4">un Proje</tspan><tspan x="143.25" y="0" class="st8 st3 st4">c</tspan><tspan x="151.79" y="0" class="st8 st3 st4">t</tspan></text>
	</g>
</g>
<g id="Layer_2">
	<circle cx="1213.27" cy="483.93" r="8.69"/>
	<circle cx="1222.22" cy="453.58" r="15.06"/>
	<circle cx="1199.58" cy="469.98" r="4.39"/>
	<circle cx="1363.45" cy="483.99" r="8.69"/>
	<circle cx="1372.41" cy="453.65" r="15.06"/>
	<circle cx="1349.77" cy="470.04" r="4.39"/>
	<g>
		<g>
			<path class="st0" d="M313.66,436.99v-21.1h99.42v21.1h-37.06v99.96h-25.3v-99.96H313.66z"/>
			<path class="st0" d="M540.76,476.42c0,13.2-2.49,24.43-7.48,33.69c-4.99,9.26-11.76,16.32-20.33,21.19
				c-8.57,4.87-18.2,7.3-28.88,7.3c-10.76,0-20.41-2.44-28.96-7.33c-8.55-4.89-15.31-11.96-20.27-21.22
				c-4.96-9.26-7.45-20.47-7.45-33.63c0-13.2,2.48-24.43,7.45-33.69c4.97-9.26,11.72-16.32,20.27-21.19
				c8.55-4.87,18.21-7.3,28.96-7.3c10.68,0,20.3,2.43,28.88,7.3c8.57,4.87,15.35,11.93,20.33,21.19
				C538.26,451.99,540.76,463.22,540.76,476.42z M514.81,476.42c0-8.55-1.27-15.76-3.81-21.63c-2.54-5.87-6.12-10.32-10.73-13.36
				c-4.61-3.03-10.01-4.55-16.2-4.55c-6.19,0-11.59,1.52-16.2,4.55c-4.61,3.04-8.19,7.49-10.73,13.36
				c-2.54,5.87-3.81,13.08-3.81,21.63c0,8.55,1.27,15.76,3.81,21.63c2.54,5.87,6.12,10.33,10.73,13.36
				c4.61,3.04,10.01,4.55,16.2,4.55c6.19,0,11.59-1.52,16.2-4.55c4.61-3.03,8.19-7.49,10.73-13.36
				C513.54,492.18,514.81,484.97,514.81,476.42z"/>
			<path class="st0" d="M593.66,436.99v-21.1h99.42v21.1h-37.06v99.96h-25.3v-99.96H593.66z"/>
			<path class="st0" d="M709.51,536.95V415.89h25.59v49.95h51.96v-49.95h25.54v121.06h-25.54v-50.01h-51.96v50.01H709.51z"/>
			<path class="st0" d="M833.7,536.95V415.89h81.57v21.1H859.3v28.85h51.78v21.1H859.3v28.91h56.21v21.1H833.7z"/>
		</g>
	</g>
</g>
<g id="Layer_4" class="st7">
	<g class="st8">
		<g>
			<path d="M515.84,463V279.73h38.75v151.33h78.57V463H515.84z"/>
			<path d="M746.27,404.48v-78.93h38.12V463h-36.6v-24.97h-1.43c-3.1,8.05-8.25,14.53-15.44,19.42c-7.19,4.89-15.94,7.34-26.27,7.34
				c-9.19,0-17.27-2.09-24.25-6.26c-6.98-4.17-12.42-10.11-16.33-17.81c-3.91-7.7-5.89-16.91-5.95-27.65v-87.52h38.12v80.72
				c0.06,8.11,2.24,14.53,6.53,19.24c4.3,4.71,10.05,7.07,17.27,7.07c4.59,0,8.89-1.06,12.89-3.18c4-2.12,7.23-5.26,9.71-9.44
				C745.12,415.78,746.33,410.62,746.27,404.48z"/>
			<path d="M852.94,383.54V463h-38.12V325.55h36.33v24.25h1.61c3.04-7.99,8.14-14.33,15.3-19.02c7.16-4.68,15.84-7.02,26.04-7.02
				c9.54,0,17.87,2.09,24.97,6.26c7.1,4.18,12.62,10.13,16.56,17.85c3.94,7.73,5.91,16.93,5.91,27.61V463h-38.12v-80.72
				c0.06-8.41-2.09-14.99-6.44-19.73c-4.36-4.74-10.35-7.11-17.99-7.11c-5.13,0-9.65,1.1-13.56,3.31c-3.91,2.21-6.95,5.41-9.13,9.62
				C854.12,372.57,853,377.63,852.94,383.54z"/>
			<path d="M1010.71,465.6c-8.77,0-16.59-1.54-23.45-4.61c-6.86-3.07-12.28-7.64-16.24-13.69c-3.97-6.05-5.95-13.62-5.95-22.69
				c0-7.64,1.4-14.05,4.21-19.24c2.8-5.19,6.62-9.37,11.46-12.53c4.83-3.16,10.34-5.55,16.51-7.16s12.66-2.74,19.46-3.4
				c7.99-0.83,14.44-1.62,19.33-2.37c4.89-0.75,8.44-1.86,10.65-3.36c2.21-1.49,3.31-3.7,3.31-6.62v-0.54
				c0-5.67-1.78-10.05-5.32-13.15c-3.55-3.1-8.58-4.65-15.08-4.65c-6.86,0-12.32,1.51-16.38,4.52c-4.06,3.01-6.74,6.79-8.05,11.32
				l-35.26-2.86c1.79-8.35,5.31-15.58,10.56-21.7c5.25-6.11,12.04-10.83,20.36-14.14s17.97-4.97,28.95-4.97
				c7.64,0,14.96,0.89,21.97,2.68c7.01,1.79,13.24,4.56,18.7,8.32c5.46,3.76,9.77,8.58,12.93,14.45c3.16,5.88,4.74,12.9,4.74,21.07
				V463h-36.15v-19.06h-1.07c-2.21,4.3-5.16,8.07-8.86,11.32c-3.7,3.25-8.14,5.79-13.33,7.61
				C1023.5,464.69,1017.51,465.6,1010.71,465.6z M1021.63,439.29c5.61,0,10.56-1.12,14.85-3.36c4.3-2.24,7.67-5.26,10.11-9.08
				c2.45-3.82,3.67-8.14,3.67-12.98v-14.59c-1.19,0.78-2.82,1.48-4.88,2.1s-4.37,1.19-6.94,1.7c-2.57,0.51-5.13,0.96-7.7,1.34
				c-2.57,0.39-4.89,0.73-6.98,1.03c-4.47,0.66-8.38,1.7-11.72,3.13c-3.34,1.43-5.94,3.36-7.79,5.77c-1.85,2.42-2.77,5.41-2.77,8.99
				c0,5.19,1.89,9.14,5.68,11.86C1010.96,437.93,1015.78,439.29,1021.63,439.29z"/>
		</g>
	</g>
</g>
</svg>
